<svg width="92" height="20" viewBox="0 0 23 5" fill="none" xmlns="http://www.w3.org/2000/svg">
<path d="M7 5H6V0H7V2H9V0H10V5H9V3H7V5ZM12 2V1H13V2H12ZM12 4H11V2H12V4ZM14 4H13V2H14V4ZM13 4V5H12V4H13ZM16 5H15V1H17V2H16V5ZM18 5H17V2H18V5ZM20 2V1H21V2H20ZM20 4H19V2H20V4ZM22 4H21V2H22V4ZM21 4V5H20V4H21Z" fill="#CCCCCC"/>
<rect x="3" y="2" width="2" height="1" fill="#CCCCCC"/>
<rect y="2" width="2" height="1" fill="#CCCCCC"/>
<rect width="1" height="1" transform="matrix(1 0 0 -1 4 1)" fill="#CCCCCC"/>
<rect width="1" height="1" transform="matrix(1 0 0 -1 0 1)" fill="#CCCCCC"/>
<rect width="2" height="1" transform="matrix(1 0 0 -1 0 5)" fill="#CCCCCC"/>
<rect width="2" height="1" transform="matrix(1 0 0 -1 3 5)" fill="#CCCCCC"/>
<rect x="2" width="1" height="2" fill="#CCCCCC"/>
<rect x="2" y="3" width="1" height="1" fill="#CCCCCC"/>
</svg>
